<svg width="512" height="512" viewBox="0 0 512 512" fill="none" xmlns="http://www.w3.org/2000/svg">
<path fill-rule="evenodd" clip-rule="evenodd" d="M256 128C194.138 128 144 178.138 144 240C144 267.16 153.657 292.053 169.791 311.61L148.213 339.599C144.976 343.798 148.603 349.716 153.746 348.711L191.985 341.244C211.346 350.761 233.048 356.145 256 356.145C317.862 356.145 368 306.007 368 244.145C368 182.283 317.862 132.145 256 132.145V128ZM256 168C216.235 168 184 200.235 184 240C184 279.765 216.235 312 256 312C271.752 312 286.32 306.937 298.183 298.395L324.385 324.597C328.29 328.502 334.622 328.502 338.527 324.597C342.432 320.692 342.432 314.36 338.527 310.455L313.201 285.129C323.098 272.566 329.145 256.971 329.145 240C329.145 200.235 296.91 168 257.145 168H256ZM256 208C238.327 208 224 222.327 224 240C224 257.673 238.327 272 256 272C273.673 272 288 257.673 288 240C288 222.327 273.673 208 256 208Z" fill="white"/>
<path d="M144 376C144 362.745 194.138 352 256 352C317.862 352 368 362.745 368 376V408C368 421.255 317.862 432 256 432C194.138 432 144 421.255 144 408V376Z" fill="white"/>
<path d="M144 448C144 434.745 194.138 424 256 424C317.862 424 368 434.745 368 448V480C368 493.255 317.862 504 256 504C194.138 504 144 493.255 144 480V448Z" fill="white"/>
</svg>