<?xml version="1.0" standalone="no"?>
<!DOCTYPE svg PUBLIC "-//W3C//DTD SVG 20010904//EN"
 "http://www.w3.org/TR/2001/REC-SVG-20010904/DTD/svg10.dtd">
<svg version="1.0" xmlns="http://www.w3.org/2000/svg"
 width="600.000000pt" height="600.000000pt" viewBox="0 0 600.000000 600.000000"
 preserveAspectRatio="xMidYMid meet">
<g transform="translate(0.000000,600.000000) scale(0.100000,-0.100000)"
fill="#FCFEFF" stroke="none">
<path d="M2855 4334 c-160 -37 -252 -72 -341 -129 -70 -45 -77 -50 -166 -140
-112 -113 -175 -222 -219 -382 -19 -64 -22 -103 -22 -218 1 -160 18 -243 77
-371 41 -88 43 -116 16 -234 -25 -108 -25 -131 1 -164 24 -31 67 -34 145 -12
27 8 76 20 109 26 60 11 61 11 147 -30 285 -134 612 -114 864 53 142 93 234
195 309 343 44 86 55 119 82 254 27 136 4 333 -53 462 -9 20 -14 45 -10 54 6
15 8 16 24 0 22 -19 90 -21 112 -3 8 7 24 25 34 41 16 25 17 34 7 67 -19 63
-68 83 -149 60 -76 -22 -104 27 -36 64 45 24 78 77 69 112 -10 41 -58 83 -95
83 -36 0 -99 -55 -101 -86 -2 -66 -14 -75 -33 -29 -31 74 -82 97 -156 71 -48
-17 -48 -17 -72 7 -22 22 -115 62 -203 87 -41 12 -304 23 -340 14z m339 -64
c40 -10 103 -32 140 -49 66 -30 66 -30 60 -69 -9 -58 32 -125 85 -137 24 -5
26 -9 23 -49 -3 -39 0 -49 30 -81 43 -47 100 -57 152 -27 34 20 34 20 65 -47
70 -153 93 -354 57 -519 -60 -284 -269 -515 -556 -614 -93 -32 -98 -33 -265
-33 -160 0 -175 2 -250 29 -44 15 -110 43 -147 63 -67 35 -67 35 -205 5 -76
-17 -147 -34 -157 -38 -17 -6 -18 -4 -11 22 4 16 20 86 35 156 28 128 28 128
-16 214 -109 218 -115 496 -15 710 119 255 375 446 648 483 90 13 238 4 327
-19z m602 -38 c21 -13 34 -52 28 -77 -7 -27 -31 -45 -62 -45 -22 0 -79 -86
-74 -112 2 -11 22 -19 68 -27 56 -10 67 -10 81 4 10 10 29 15 51 13 46 -4 72
-42 56 -85 -17 -51 -105 -58 -124 -9 -6 18 -21 25 -65 34 -52 11 -59 10 -82
-8 -50 -39 -113 -11 -113 49 0 32 39 71 71 71 24 0 83 90 69 104 -16 16 -11
55 10 76 20 20 65 26 86 12z m-227 -58 c12 -15 21 -32 21 -39 0 -27 -41 -65
-71 -65 -33 0 -69 31 -69 59 0 32 39 71 70 71 19 0 36 -9 49 -26z"/>
<path d="M2843 3851 c-104 -39 -180 -107 -231 -211 -25 -50 -27 -65 -27 -170
0 -103 3 -121 26 -170 40 -85 108 -154 197 -197 73 -36 80 -38 176 -38 84 1
110 5 154 24 53 24 53 24 100 -22 48 -47 48 -47 145 -47 97 0 97 0 7 92 -84
87 -88 94 -74 113 8 11 27 45 42 75 24 50 27 65 27 165 0 103 -2 114 -32 177
-39 83 -107 153 -188 193 -53 26 -73 29 -165 32 -84 3 -115 0 -157 -16z m245
-39 c226 -71 321 -306 212 -525 -35 -71 -37 -95 -10 -125 12 -12 18 -22 15
-22 -4 0 3 -12 15 -27 19 -25 20 -28 5 -31 -9 -2 -22 -2 -28 1 -7 2 -16 5 -21
5 -5 0 -13 7 -18 16 -5 9 -23 23 -39 32 -29 14 -36 14 -99 -5 -87 -27 -166
-27 -257 0 -61 18 -81 30 -130 79 -78 76 -108 152 -107 265 0 64 5 91 27 138
27 59 123 171 138 161 5 -3 9 -1 9 4 0 5 24 16 53 25 102 31 156 33 235 9z"/>
<path d="M2915 3763 c-11 -3 -24 -9 -29 -14 -6 -5 -17 -9 -26 -9 -31 0 -126
-96 -150 -152 -33 -76 -32 -167 3 -240 30 -64 73 -118 92 -118 7 0 15 -3 17
-7 17 -39 186 -68 238 -41 42 23 52 55 29 99 -10 21 -19 41 -19 44 0 12 45 4
74 -14 42 -26 64 -21 99 22 70 86 48 254 -44 346 -64 63 -206 106 -284 84z
m168 -58 c90 -37 157 -136 157 -230 0 -57 -13 -112 -34 -140 -13 -18 -15 -17
-46 18 -32 37 -32 37 -133 37 -102 0 -102 0 -22 -80 90 -91 89 -96 -25 -94
-139 2 -238 98 -248 241 -3 50 0 71 21 116 26 58 84 114 138 133 48 17 150 17
192 -1z"/>
<path d="M3690 2708 c0 -3 -8 -9 -17 -12 -10 -3 -32 -19 -49 -35 -70 -66 -242
-128 -417 -151 -112 -14 -335 -12 -452 5 -55 8 -138 28 -185 45 -47 16 -89 31
-95 33 -5 1 -12 5 -15 8 -11 13 -98 49 -118 49 -53 0 -106 -39 -118 -87 -12
-47 2 -167 24 -212 21 -44 21 -44 -1 -75 -19 -27 -22 -46 -25 -157 -3 -113 -1
-132 19 -178 13 -31 40 -68 66 -91 46 -40 190 -116 233 -123 14 -2 33 -7 43
-10 106 -40 196 -52 407 -52 217 0 280 8 430 52 166 49 287 128 330 217 17 36
20 61 20 177 -1 95 -4 139 -14 152 -7 9 -16 17 -20 17 -3 0 -6 -65 -6 -145 0
-167 -7 -192 -68 -247 -144 -130 -490 -208 -797 -179 -281 27 -514 120 -579
231 -19 31 -21 54 -23 195 -2 131 -1 156 10 141 55 -86 132 -138 273 -185 145
-49 256 -65 454 -65 277 0 484 50 635 154 38 26 88 87 90 110 2 15 29 86 36
95 5 5 9 69 9 143 0 150 -13 193 -57 190 -13 -2 -23 -6 -23 -10z m30 -310 c-6
-23 -29 -53 -62 -83 -234 -211 -859 -248 -1213 -72 -142 70 -184 131 -185 263
0 82 0 82 48 91 44 8 53 6 132 -34 141 -71 346 -113 555 -113 319 0 627 100
707 229 23 36 23 36 26 -104 2 -80 -1 -156 -8 -177z"/>
<path d="M5638 456 c-13 -12 -32 -34 -44 -47 -11 -13 -31 -31 -42 -39 -43 -29
-38 -46 37 -121 47 -47 71 -65 71 -54 0 33 -41 84 -85 105 -25 12 -45 25 -45
29 0 4 16 13 35 19 38 14 82 61 91 98 9 35 21 30 42 -19 20 -44 72 -87 107
-87 12 0 -6 23 -54 70 -39 39 -75 70 -80 70 -6 0 -20 -11 -33 -24z"/>
<path d="M5775 306 c-16 -7 -40 -24 -52 -37 -20 -22 -47 -78 -41 -85 2 -1 33
29 70 67 70 72 72 77 23 55z"/>
</g>
</svg>
